<svg width="250" height="250" viewBox="0 0 250 250" fill="none" xmlns="http://www.w3.org/2000/svg">
<path fill-rule="evenodd" clip-rule="evenodd" d="M156 145C197.421 145 231 111.421 231 70C231 65.5473 230.612 61.1851 229.868 56.9456C242.602 76.5282 250 99.9002 250 125C250 194.036 194.036 250 125 250C55.9644 250 0 194.036 0 125C0 55.9644 55.9644 0 125 0C126.293 0 127.582 0.0196469 128.866 0.0586576C100.856 10.9327 81 38.1475 81 70C81 111.421 114.579 145 156 145Z" fill="url(#paint0_radial_105_40)"/>
<defs>
<radialGradient id="paint0_radial_105_40" cx="0" cy="0" r="1" gradientUnits="userSpaceOnUse" gradientTransform="translate(125 125) rotate(62.565) scale(103.095)">
<stop offset="0.567708" stop-color="#C364FA"/>
<stop offset="1" stop-color="#A230ED"/>
</radialGradient>
</defs>
</svg>
