<svg width="653" height="250" viewBox="0 0 653 250" fill="none" xmlns="http://www.w3.org/2000/svg">
<g clip-path="url(#clip0_101_39)">
<path fill-rule="evenodd" clip-rule="evenodd" d="M156 145C197.421 145 231 111.421 231 70C231 65.5473 230.612 61.1851 229.868 56.9456C242.602 76.5282 250 99.9002 250 125C250 194.036 194.036 250 125 250C55.9644 250 0 194.036 0 125C0 55.9644 55.9644 0 125 0C126.293 0 127.582 0.0196469 128.866 0.0586576C100.856 10.9327 81 38.1475 81 70C81 111.421 114.579 145 156 145Z" fill="url(#paint0_radial_101_39)"/>
<path d="M334.5 150.641V158H298.359V150.641H334.5ZM300.188 89.75V158H291.141V89.75H300.188ZM329.719 119.094V126.453H298.359V119.094H329.719ZM334.031 89.75V97.1562H298.359V89.75H334.031ZM363.75 151.812C365.812 151.812 367.719 151.391 369.469 150.547C371.219 149.703 372.656 148.547 373.781 147.078C374.906 145.578 375.547 143.875 375.703 141.969H383.953C383.797 144.969 382.781 147.766 380.906 150.359C379.062 152.922 376.641 155 373.641 156.594C370.641 158.156 367.344 158.938 363.75 158.938C359.938 158.938 356.609 158.266 353.766 156.922C350.953 155.578 348.609 153.734 346.734 151.391C344.891 149.047 343.5 146.359 342.562 143.328C341.656 140.266 341.203 137.031 341.203 133.625V131.656C341.203 128.25 341.656 125.031 342.562 122C343.5 118.938 344.891 116.234 346.734 113.891C348.609 111.547 350.953 109.703 353.766 108.359C356.609 107.016 359.938 106.344 363.75 106.344C367.719 106.344 371.188 107.156 374.156 108.781C377.125 110.375 379.453 112.562 381.141 115.344C382.859 118.094 383.797 121.219 383.953 124.719H375.703C375.547 122.625 374.953 120.734 373.922 119.047C372.922 117.359 371.547 116.016 369.797 115.016C368.078 113.984 366.062 113.469 363.75 113.469C361.094 113.469 358.859 114 357.047 115.062C355.266 116.094 353.844 117.5 352.781 119.281C351.75 121.031 351 122.984 350.531 125.141C350.094 127.266 349.875 129.438 349.875 131.656V133.625C349.875 135.844 350.094 138.031 350.531 140.188C350.969 142.344 351.703 144.297 352.734 146.047C353.797 147.797 355.219 149.203 357 150.266C358.812 151.297 361.062 151.812 363.75 151.812ZM403.125 86V158H394.406V86H403.125ZM426.469 107.281V158H417.75V107.281H426.469ZM417.094 93.8281C417.094 92.4219 417.516 91.2344 418.359 90.2656C419.234 89.2969 420.516 88.8125 422.203 88.8125C423.859 88.8125 425.125 89.2969 426 90.2656C426.906 91.2344 427.359 92.4219 427.359 93.8281C427.359 95.1719 426.906 96.3281 426 97.2969C425.125 98.2344 423.859 98.7031 422.203 98.7031C420.516 98.7031 419.234 98.2344 418.359 97.2969C417.516 96.3281 417.094 95.1719 417.094 93.8281ZM449.062 117.031V177.5H440.344V107.281H448.312L449.062 117.031ZM483.234 132.219V133.203C483.234 136.891 482.797 140.312 481.922 143.469C481.047 146.594 479.766 149.312 478.078 151.625C476.422 153.938 474.375 155.734 471.938 157.016C469.5 158.297 466.703 158.938 463.547 158.938C460.328 158.938 457.484 158.406 455.016 157.344C452.547 156.281 450.453 154.734 448.734 152.703C447.016 150.672 445.641 148.234 444.609 145.391C443.609 142.547 442.922 139.344 442.547 135.781V130.531C442.922 126.781 443.625 123.422 444.656 120.453C445.688 117.484 447.047 114.953 448.734 112.859C450.453 110.734 452.531 109.125 454.969 108.031C457.406 106.906 460.219 106.344 463.406 106.344C466.594 106.344 469.422 106.969 471.891 108.219C474.359 109.438 476.438 111.188 478.125 113.469C479.812 115.75 481.078 118.484 481.922 121.672C482.797 124.828 483.234 128.344 483.234 132.219ZM474.516 133.203V132.219C474.516 129.688 474.25 127.312 473.719 125.094C473.188 122.844 472.359 120.875 471.234 119.188C470.141 117.469 468.734 116.125 467.016 115.156C465.297 114.156 463.25 113.656 460.875 113.656C458.688 113.656 456.781 114.031 455.156 114.781C453.562 115.531 452.203 116.547 451.078 117.828C449.953 119.078 449.031 120.516 448.312 122.141C447.625 123.734 447.109 125.391 446.766 127.109V139.25C447.391 141.438 448.266 143.5 449.391 145.438C450.516 147.344 452.016 148.891 453.891 150.078C455.766 151.234 458.125 151.812 460.969 151.812C463.312 151.812 465.328 151.328 467.016 150.359C468.734 149.359 470.141 148 471.234 146.281C472.359 144.562 473.188 142.594 473.719 140.375C474.25 138.125 474.516 135.734 474.516 133.203ZM523.828 144.547C523.828 143.297 523.547 142.141 522.984 141.078C522.453 139.984 521.344 139 519.656 138.125C518 137.219 515.5 136.438 512.156 135.781C509.344 135.188 506.797 134.484 504.516 133.672C502.266 132.859 500.344 131.875 498.75 130.719C497.188 129.562 495.984 128.203 495.141 126.641C494.297 125.078 493.875 123.25 493.875 121.156C493.875 119.156 494.312 117.266 495.188 115.484C496.094 113.703 497.359 112.125 498.984 110.75C500.641 109.375 502.625 108.297 504.938 107.516C507.25 106.734 509.828 106.344 512.672 106.344C516.734 106.344 520.203 107.062 523.078 108.5C525.953 109.938 528.156 111.859 529.688 114.266C531.219 116.641 531.984 119.281 531.984 122.188H523.312C523.312 120.781 522.891 119.422 522.047 118.109C521.234 116.766 520.031 115.656 518.438 114.781C516.875 113.906 514.953 113.469 512.672 113.469C510.266 113.469 508.312 113.844 506.812 114.594C505.344 115.312 504.266 116.234 503.578 117.359C502.922 118.484 502.594 119.672 502.594 120.922C502.594 121.859 502.75 122.703 503.062 123.453C503.406 124.172 504 124.844 504.844 125.469C505.688 126.062 506.875 126.625 508.406 127.156C509.938 127.688 511.891 128.219 514.266 128.75C518.422 129.688 521.844 130.812 524.531 132.125C527.219 133.438 529.219 135.047 530.531 136.953C531.844 138.859 532.5 141.172 532.5 143.891C532.5 146.109 532.031 148.141 531.094 149.984C530.188 151.828 528.859 153.422 527.109 154.766C525.391 156.078 523.328 157.109 520.922 157.859C518.547 158.578 515.875 158.938 512.906 158.938C508.438 158.938 504.656 158.141 501.562 156.547C498.469 154.953 496.125 152.891 494.531 150.359C492.938 147.828 492.141 145.156 492.141 142.344H500.859C500.984 144.719 501.672 146.609 502.922 148.016C504.172 149.391 505.703 150.375 507.516 150.969C509.328 151.531 511.125 151.812 512.906 151.812C515.281 151.812 517.266 151.5 518.859 150.875C520.484 150.25 521.719 149.391 522.562 148.297C523.406 147.203 523.828 145.953 523.828 144.547ZM564.938 158.938C561.406 158.938 558.203 158.344 555.328 157.156C552.484 155.938 550.031 154.234 547.969 152.047C545.938 149.859 544.375 147.266 543.281 144.266C542.188 141.266 541.641 137.984 541.641 134.422V132.453C541.641 128.328 542.25 124.656 543.469 121.438C544.688 118.188 546.344 115.438 548.438 113.188C550.531 110.938 552.906 109.234 555.562 108.078C558.219 106.922 560.969 106.344 563.812 106.344C567.438 106.344 570.562 106.969 573.188 108.219C575.844 109.469 578.016 111.219 579.703 113.469C581.391 115.688 582.641 118.312 583.453 121.344C584.266 124.344 584.672 127.625 584.672 131.188V135.078H546.797V128H576V127.344C575.875 125.094 575.406 122.906 574.594 120.781C573.812 118.656 572.562 116.906 570.844 115.531C569.125 114.156 566.781 113.469 563.812 113.469C561.844 113.469 560.031 113.891 558.375 114.734C556.719 115.547 555.297 116.766 554.109 118.391C552.922 120.016 552 122 551.344 124.344C550.688 126.688 550.359 129.391 550.359 132.453V134.422C550.359 136.828 550.688 139.094 551.344 141.219C552.031 143.312 553.016 145.156 554.297 146.75C555.609 148.344 557.188 149.594 559.031 150.5C560.906 151.406 563.031 151.859 565.406 151.859C568.469 151.859 571.062 151.234 573.188 149.984C575.312 148.734 577.172 147.062 578.766 144.969L584.016 149.141C582.922 150.797 581.531 152.375 579.844 153.875C578.156 155.375 576.078 156.594 573.609 157.531C571.172 158.469 568.281 158.938 564.938 158.938ZM624.328 144.547C624.328 143.297 624.047 142.141 623.484 141.078C622.953 139.984 621.844 139 620.156 138.125C618.5 137.219 616 136.438 612.656 135.781C609.844 135.188 607.297 134.484 605.016 133.672C602.766 132.859 600.844 131.875 599.25 130.719C597.688 129.562 596.484 128.203 595.641 126.641C594.797 125.078 594.375 123.25 594.375 121.156C594.375 119.156 594.812 117.266 595.688 115.484C596.594 113.703 597.859 112.125 599.484 110.75C601.141 109.375 603.125 108.297 605.438 107.516C607.75 106.734 610.328 106.344 613.172 106.344C617.234 106.344 620.703 107.062 623.578 108.5C626.453 109.938 628.656 111.859 630.188 114.266C631.719 116.641 632.484 119.281 632.484 122.188H623.812C623.812 120.781 623.391 119.422 622.547 118.109C621.734 116.766 620.531 115.656 618.938 114.781C617.375 113.906 615.453 113.469 613.172 113.469C610.766 113.469 608.812 113.844 607.312 114.594C605.844 115.312 604.766 116.234 604.078 117.359C603.422 118.484 603.094 119.672 603.094 120.922C603.094 121.859 603.25 122.703 603.562 123.453C603.906 124.172 604.5 124.844 605.344 125.469C606.188 126.062 607.375 126.625 608.906 127.156C610.438 127.688 612.391 128.219 614.766 128.75C618.922 129.688 622.344 130.812 625.031 132.125C627.719 133.438 629.719 135.047 631.031 136.953C632.344 138.859 633 141.172 633 143.891C633 146.109 632.531 148.141 631.594 149.984C630.688 151.828 629.359 153.422 627.609 154.766C625.891 156.078 623.828 157.109 621.422 157.859C619.047 158.578 616.375 158.938 613.406 158.938C608.938 158.938 605.156 158.141 602.062 156.547C598.969 154.953 596.625 152.891 595.031 150.359C593.438 147.828 592.641 145.156 592.641 142.344H601.359C601.484 144.719 602.172 146.609 603.422 148.016C604.672 149.391 606.203 150.375 608.016 150.969C609.828 151.531 611.625 151.812 613.406 151.812C615.781 151.812 617.766 151.5 619.359 150.875C620.984 150.25 622.219 149.391 623.062 148.297C623.906 147.203 624.328 145.953 624.328 144.547Z" fill="white"/>
</g>
<defs>
<radialGradient id="paint0_radial_101_39" cx="0" cy="0" r="1" gradientUnits="userSpaceOnUse" gradientTransform="translate(125 125) rotate(62.565) scale(103.095)">
<stop offset="0.567708" stop-color="#C364FA"/>
<stop offset="1" stop-color="#A230ED"/>
</radialGradient>
<clipPath id="clip0_101_39">
<rect width="653" height="250" fill="white"/>
</clipPath>
</defs>
</svg>
