<svg width="406" height="162" viewBox="0 0 406 162" fill="none" xmlns="http://www.w3.org/2000/svg">
<g clip-path="url(#clip0_106_4)">
<path fill-rule="evenodd" clip-rule="evenodd" d="M93.6 93C118.453 93 138.6 72.8528 138.6 48C138.6 45.3284 138.367 42.7111 137.921 40.1674C145.561 51.917 150 65.9401 150 81C150 122.421 116.421 156 75 156C33.5786 156 0 122.421 0 81C0 39.5786 33.5786 6 75 6C75.7761 6 76.5494 6.01179 77.3198 6.03519C60.5139 12.5596 48.6 28.8885 48.6 48C48.6 72.8528 68.7472 93 93.6 93Z" fill="url(#paint0_radial_106_4)"/>
<path d="M203.5 98.0938V103H179.406V98.0938H203.5ZM180.625 57.5V103H174.594V57.5H180.625ZM200.312 77.0625V81.9688H179.406V77.0625H200.312ZM203.188 57.5V62.4375H179.406V57.5H203.188ZM223 98.875C224.375 98.875 225.646 98.5938 226.812 98.0312C227.979 97.4688 228.938 96.6979 229.688 95.7188C230.438 94.7188 230.865 93.5833 230.969 92.3125H236.469C236.365 94.3125 235.688 96.1771 234.438 97.9062C233.208 99.6146 231.594 101 229.594 102.062C227.594 103.104 225.396 103.625 223 103.625C220.458 103.625 218.24 103.177 216.344 102.281C214.469 101.385 212.906 100.156 211.656 98.5938C210.427 97.0312 209.5 95.2396 208.875 93.2188C208.271 91.1771 207.969 89.0208 207.969 86.75V85.4375C207.969 83.1667 208.271 81.0208 208.875 79C209.5 76.9583 210.427 75.1562 211.656 73.5938C212.906 72.0312 214.469 70.8021 216.344 69.9062C218.24 69.0104 220.458 68.5625 223 68.5625C225.646 68.5625 227.958 69.1042 229.938 70.1875C231.917 71.25 233.469 72.7083 234.594 74.5625C235.74 76.3958 236.365 78.4792 236.469 80.8125H230.969C230.865 79.4167 230.469 78.1562 229.781 77.0312C229.115 75.9062 228.198 75.0104 227.031 74.3438C225.885 73.6562 224.542 73.3125 223 73.3125C221.229 73.3125 219.74 73.6667 218.531 74.375C217.344 75.0625 216.396 76 215.688 77.1875C215 78.3542 214.5 79.6562 214.188 81.0938C213.896 82.5104 213.75 83.9583 213.75 85.4375V86.75C213.75 88.2292 213.896 89.6875 214.188 91.125C214.479 92.5625 214.969 93.8646 215.656 95.0312C216.365 96.1979 217.312 97.1354 218.5 97.8438C219.708 98.5312 221.208 98.875 223 98.875ZM249.25 55V103H243.438V55H249.25ZM264.812 69.1875V103H259V69.1875H264.812ZM258.562 60.2188C258.562 59.2812 258.844 58.4896 259.406 57.8438C259.99 57.1979 260.844 56.875 261.969 56.875C263.073 56.875 263.917 57.1979 264.5 57.8438C265.104 58.4896 265.406 59.2812 265.406 60.2188C265.406 61.1146 265.104 61.8854 264.5 62.5312C263.917 63.1562 263.073 63.4688 261.969 63.4688C260.844 63.4688 259.99 63.1562 259.406 62.5312C258.844 61.8854 258.562 61.1146 258.562 60.2188ZM279.875 75.6875V116H274.062V69.1875H279.375L279.875 75.6875ZM302.656 85.8125V86.4688C302.656 88.9271 302.365 91.2083 301.781 93.3125C301.198 95.3958 300.344 97.2083 299.219 98.75C298.115 100.292 296.75 101.49 295.125 102.344C293.5 103.198 291.635 103.625 289.531 103.625C287.385 103.625 285.49 103.271 283.844 102.562C282.198 101.854 280.802 100.823 279.656 99.4688C278.51 98.1146 277.594 96.4896 276.906 94.5938C276.24 92.6979 275.781 90.5625 275.531 88.1875V84.6875C275.781 82.1875 276.25 79.9479 276.938 77.9688C277.625 75.9896 278.531 74.3021 279.656 72.9062C280.802 71.4896 282.188 70.4167 283.812 69.6875C285.438 68.9375 287.312 68.5625 289.438 68.5625C291.562 68.5625 293.448 68.9792 295.094 69.8125C296.74 70.625 298.125 71.7917 299.25 73.3125C300.375 74.8333 301.219 76.6562 301.781 78.7812C302.365 80.8854 302.656 83.2292 302.656 85.8125ZM296.844 86.4688V85.8125C296.844 84.125 296.667 82.5417 296.312 81.0625C295.958 79.5625 295.406 78.25 294.656 77.125C293.927 75.9792 292.99 75.0833 291.844 74.4375C290.698 73.7708 289.333 73.4375 287.75 73.4375C286.292 73.4375 285.021 73.6875 283.938 74.1875C282.875 74.6875 281.969 75.3646 281.219 76.2188C280.469 77.0521 279.854 78.0104 279.375 79.0938C278.917 80.1562 278.573 81.2604 278.344 82.4062V90.5C278.76 91.9583 279.344 93.3333 280.094 94.625C280.844 95.8958 281.844 96.9271 283.094 97.7188C284.344 98.4896 285.917 98.875 287.812 98.875C289.375 98.875 290.719 98.5521 291.844 97.9062C292.99 97.2396 293.927 96.3333 294.656 95.1875C295.406 94.0417 295.958 92.7292 296.312 91.25C296.667 89.75 296.844 88.1562 296.844 86.4688ZM329.719 94.0312C329.719 93.1979 329.531 92.4271 329.156 91.7188C328.802 90.9896 328.062 90.3333 326.938 89.75C325.833 89.1458 324.167 88.625 321.938 88.1875C320.062 87.7917 318.365 87.3229 316.844 86.7812C315.344 86.2396 314.062 85.5833 313 84.8125C311.958 84.0417 311.156 83.1354 310.594 82.0938C310.031 81.0521 309.75 79.8333 309.75 78.4375C309.75 77.1042 310.042 75.8438 310.625 74.6562C311.229 73.4688 312.073 72.4167 313.156 71.5C314.26 70.5833 315.583 69.8646 317.125 69.3438C318.667 68.8229 320.385 68.5625 322.281 68.5625C324.99 68.5625 327.302 69.0417 329.219 70C331.135 70.9583 332.604 72.2396 333.625 73.8438C334.646 75.4271 335.156 77.1875 335.156 79.125H329.375C329.375 78.1875 329.094 77.2812 328.531 76.4062C327.99 75.5104 327.188 74.7708 326.125 74.1875C325.083 73.6042 323.802 73.3125 322.281 73.3125C320.677 73.3125 319.375 73.5625 318.375 74.0625C317.396 74.5417 316.677 75.1562 316.219 75.9062C315.781 76.6562 315.562 77.4479 315.562 78.2812C315.562 78.9062 315.667 79.4688 315.875 79.9688C316.104 80.4479 316.5 80.8958 317.062 81.3125C317.625 81.7083 318.417 82.0833 319.438 82.4375C320.458 82.7917 321.76 83.1458 323.344 83.5C326.115 84.125 328.396 84.875 330.188 85.75C331.979 86.625 333.312 87.6979 334.188 88.9688C335.062 90.2396 335.5 91.7812 335.5 93.5938C335.5 95.0729 335.188 96.4271 334.562 97.6562C333.958 98.8854 333.073 99.9479 331.906 100.844C330.76 101.719 329.385 102.406 327.781 102.906C326.198 103.385 324.417 103.625 322.438 103.625C319.458 103.625 316.938 103.094 314.875 102.031C312.812 100.969 311.25 99.5938 310.188 97.9062C309.125 96.2188 308.594 94.4375 308.594 92.5625H314.406C314.49 94.1458 314.948 95.4062 315.781 96.3438C316.615 97.2604 317.635 97.9167 318.844 98.3125C320.052 98.6875 321.25 98.875 322.438 98.875C324.021 98.875 325.344 98.6667 326.406 98.25C327.49 97.8333 328.312 97.2604 328.875 96.5312C329.438 95.8021 329.719 94.9688 329.719 94.0312ZM357.125 103.625C354.771 103.625 352.635 103.229 350.719 102.438C348.823 101.625 347.188 100.49 345.812 99.0312C344.458 97.5729 343.417 95.8438 342.688 93.8438C341.958 91.8438 341.594 89.6562 341.594 87.2812V85.9688C341.594 83.2188 342 80.7708 342.812 78.625C343.625 76.4583 344.729 74.625 346.125 73.125C347.521 71.625 349.104 70.4896 350.875 69.7188C352.646 68.9479 354.479 68.5625 356.375 68.5625C358.792 68.5625 360.875 68.9792 362.625 69.8125C364.396 70.6458 365.844 71.8125 366.969 73.3125C368.094 74.7917 368.927 76.5417 369.469 78.5625C370.01 80.5625 370.281 82.75 370.281 85.125V87.7188H345.031V83H364.5V82.5625C364.417 81.0625 364.104 79.6042 363.562 78.1875C363.042 76.7708 362.208 75.6042 361.062 74.6875C359.917 73.7708 358.354 73.3125 356.375 73.3125C355.062 73.3125 353.854 73.5938 352.75 74.1562C351.646 74.6979 350.698 75.5104 349.906 76.5938C349.115 77.6771 348.5 79 348.062 80.5625C347.625 82.125 347.406 83.9271 347.406 85.9688V87.2812C347.406 88.8854 347.625 90.3958 348.062 91.8125C348.521 93.2083 349.177 94.4375 350.031 95.5C350.906 96.5625 351.958 97.3958 353.188 98C354.438 98.6042 355.854 98.9062 357.438 98.9062C359.479 98.9062 361.208 98.4896 362.625 97.6562C364.042 96.8229 365.281 95.7083 366.344 94.3125L369.844 97.0938C369.115 98.1979 368.188 99.25 367.062 100.25C365.938 101.25 364.552 102.062 362.906 102.688C361.281 103.312 359.354 103.625 357.125 103.625ZM396.719 94.0312C396.719 93.1979 396.531 92.4271 396.156 91.7188C395.802 90.9896 395.062 90.3333 393.938 89.75C392.833 89.1458 391.167 88.625 388.938 88.1875C387.062 87.7917 385.365 87.3229 383.844 86.7812C382.344 86.2396 381.062 85.5833 380 84.8125C378.958 84.0417 378.156 83.1354 377.594 82.0938C377.031 81.0521 376.75 79.8333 376.75 78.4375C376.75 77.1042 377.042 75.8438 377.625 74.6562C378.229 73.4688 379.073 72.4167 380.156 71.5C381.26 70.5833 382.583 69.8646 384.125 69.3438C385.667 68.8229 387.385 68.5625 389.281 68.5625C391.99 68.5625 394.302 69.0417 396.219 70C398.135 70.9583 399.604 72.2396 400.625 73.8438C401.646 75.4271 402.156 77.1875 402.156 79.125H396.375C396.375 78.1875 396.094 77.2812 395.531 76.4062C394.99 75.5104 394.188 74.7708 393.125 74.1875C392.083 73.6042 390.802 73.3125 389.281 73.3125C387.677 73.3125 386.375 73.5625 385.375 74.0625C384.396 74.5417 383.677 75.1562 383.219 75.9062C382.781 76.6562 382.562 77.4479 382.562 78.2812C382.562 78.9062 382.667 79.4688 382.875 79.9688C383.104 80.4479 383.5 80.8958 384.062 81.3125C384.625 81.7083 385.417 82.0833 386.438 82.4375C387.458 82.7917 388.76 83.1458 390.344 83.5C393.115 84.125 395.396 84.875 397.188 85.75C398.979 86.625 400.312 87.6979 401.188 88.9688C402.062 90.2396 402.5 91.7812 402.5 93.5938C402.5 95.0729 402.188 96.4271 401.562 97.6562C400.958 98.8854 400.073 99.9479 398.906 100.844C397.76 101.719 396.385 102.406 394.781 102.906C393.198 103.385 391.417 103.625 389.438 103.625C386.458 103.625 383.938 103.094 381.875 102.031C379.812 100.969 378.25 99.5938 377.188 97.9062C376.125 96.2188 375.594 94.4375 375.594 92.5625H381.406C381.49 94.1458 381.948 95.4062 382.781 96.3438C383.615 97.2604 384.635 97.9167 385.844 98.3125C387.052 98.6875 388.25 98.875 389.438 98.875C391.021 98.875 392.344 98.6667 393.406 98.25C394.49 97.8333 395.312 97.2604 395.875 96.5312C396.438 95.8021 396.719 94.9688 396.719 94.0312Z" fill="white"/>
</g>
<defs>
<radialGradient id="paint0_radial_106_4" cx="0" cy="0" r="1" gradientUnits="userSpaceOnUse" gradientTransform="translate(75 81) rotate(62.565) scale(61.8568)">
<stop offset="0.567708" stop-color="#C364FA"/>
<stop offset="1" stop-color="#A230ED"/>
</radialGradient>
<clipPath id="clip0_106_4">
<rect width="406" height="162" fill="white"/>
</clipPath>
</defs>
</svg>
